8_ID_stride2.mot
nRows=7
nColumns=38

name 8_ID_stride2.mot
datacolumns 38
datarows 7
range 0.5100000000 0.5400000000
endheader
time	pelvis_tilt_moment	pelvis_list_moment	pelvis_rotation_moment	pelvis_tx_force	pelvis_ty_force	pelvis_tz_force	hip_flexion_r_moment	hip_adduction_r_moment	hip_rotation_r_moment	knee_angle_r_moment	ankle_angle_r_moment	subtalar_angle_r_moment	mtp_angle_r_moment	hip_flexion_l_moment	hip_adduction_l_moment	hip_rotation_l_moment	knee_angle_l_moment	ankle_angle_l_moment	subtalar_angle_l_moment	mtp_angle_l_moment	lumbar_extension_moment	lumbar_bending_moment	lumbar_rotation_moment	arm_flex_r_moment	arm_add_r_moment	arm_rot_r_moment	elbow_flex_r_moment	pro_sup_r_moment	wrist_flex_r_moment	wrist_dev_r_moment	arm_flex_l_moment	arm_add_l_moment	arm_rot_l_moment	elbow_flex_l_moment	pro_sup_l_moment	wrist_flex_l_moment	wrist_dev_l_moment
        0.5100000000	       11.6102396417	      -30.8471012208	       -1.1268098601	      -26.7033689632	      280.6741064512	       88.6658517704	      -44.2365340124	       10.5016137240	        0.2598216875	      -33.7002440028	        3.4770731568	        3.7772799365	        0.1382979052	       48.1336340508	       -9.4694406808	        7.6244719383	       23.1087113203	        5.4112980299	       -1.0198941131	        0.3374631351	       -9.2987398495	      -23.9376208260	        2.4297046973	       -2.4844532084	        0.6363279145	        0.7354806273	       -0.2329128993	        0.0311337041	        0.0682492177	        0.0751694799	       -3.9555379208	       -0.3478793055	        0.1534359523	       -0.7080243010	        0.0033854501	       -0.0044249501	        0.0915358062	
        0.5150000000	       31.3483409128	        7.6673756282	        0.6640985909	     -104.4835725167	      423.7121073586	       88.6214619843	      -17.8473557538	        5.8166761078	        4.8315267988	      -16.3336677607	        6.3130642144	        7.7359529207	        0.2081933379	       45.4890083071	       -5.4236389130	        6.1996287481	       21.8265265795	        5.3232647630	       -0.9407913902	        0.3369629330	       11.8255315153	      -34.2892436305	        2.3415073445	       -4.0798542005	        1.5472589376	        1.3486623632	        0.4246880826	        0.0322881322	        0.1340281528	        0.0375146795	       -5.5470503009	       -0.9617479762	        0.0480685908	        0.0106059218	       -0.0119417188	        0.0090020367	        0.0357895515	
        0.5200000000	       60.4284538758	       48.0470618332	        4.3186658290	     -156.9181303897	      497.3074725097	       53.2863237225	        0.9335880019	      -16.0077566902	       16.8038930552	        3.0023561791	        6.3120999740	       12.5529693526	        0.2711996509	       46.4548972040	       -2.4848456260	        4.7455332027	       20.5693715871	        5.1729543053	       -0.8493089998	        0.3245302184	       32.6230644424	      -44.0805084093	        2.3811475200	       -5.1454995915	        2.4005523057	        1.8805813783	        1.2335464665	        0.0285764996	        0.1962734885	       -0.0192605660	       -6.6435305132	       -1.4459516447	       -0.0607461400	        0.8574137407	       -0.0302511851	        0.0232274716	       -0.0347103948	
        0.5250000000	       90.8776273949	       76.9825109099	       10.4477514393	     -165.1027413667	      461.2036403737	        3.0443490947	        0.2440298110	      -44.5311462697	       33.6462248716	       19.5141089058	       -1.0290514561	       19.4556278638	        0.3193007683	       51.3753306360	       -0.1511460879	        3.2758009787	       19.7698348704	        4.9675177769	       -0.7470843685	        0.3045208381	       48.1906116769	      -50.1295024102	        2.5356799920	       -5.4950935194	        2.9836076658	        2.2112710779	        1.9715544851	        0.0219939086	        0.2412749198	       -0.0758860330	       -7.0473230963	       -1.6573900378	       -0.1276170590	        1.6114230360	       -0.0465362996	        0.0356491440	       -0.1001722545	
        0.5300000000	      104.6055841548	       73.7265122077	       18.6700280060	     -139.7276423280	      338.8406451656	      -36.2876457446	      -18.0587055783	      -71.2638637584	       51.4994104547	       25.4233631245	      -16.2533313760	       27.8434759369	        0.3348478453	       58.3042150869	        2.0055905507	        1.8709818073	       19.9539284717	        4.7058443383	       -0.6397788213	        0.2774189420	       51.1226854042	      -48.3898138042	        2.8148844754	       -5.2719695318	        2.9266576579	        2.1719011194	        2.3242603541	        0.0143842262	        0.2420012038	       -0.1100484752	       -6.8509687981	       -1.5021641920	       -0.0903941343	        1.9841133898	       -0.0513747351	        0.0458507947	       -0.1330227490	
        0.5350000000	      107.9454191396	       57.6097909442	       27.3286837900	      -77.0179371769	      134.0269525519	      -51.6682158108	      -61.0968762907	      -83.7367651324	       63.4881471530	       26.8163831992	      -37.4749999923	       36.5626075624	        0.3379993960	       65.2854394897	        4.0956945241	        0.6207321643	       20.6619637210	        4.4029064914	       -0.5349313163	        0.2457336115	       51.3336254990	      -42.0120465678	        3.2670429409	       -4.6768486970	        2.6236382417	        1.9881392484	        2.4310202574	        0.0068398338	        0.2343941747	       -0.1222985159	       -6.3102702527	       -1.0401061252	        0.0300907146	        2.1019099529	       -0.0521723515	        0.0548410501	       -0.1433731762	
        0.5400000000	       81.5705635318	       14.4374812424	       34.5023789482	        1.9502767982	      -96.5207289348	      -29.4637282058	     -116.0472951838	      -84.1115104315	       67.4505142041	       21.4928270171	      -60.9447299047	       44.3355320052	        0.3084823863	       70.5413084424	        6.1583144357	       -0.3758084663	       22.2992133286	        4.0725487318	       -0.4405330260	        0.2121712056	       42.6337427590	      -27.5743560149	        4.0618025330	       -3.8794449347	        1.7433608152	        1.5270234457	        2.1767939596	        0.0002251307	        0.1926034043	       -0.1115697010	       -5.5731807405	       -0.2343783173	        0.2680822713	        1.8976093812	       -0.0416596054	        0.0630130375	       -0.1236867856	
